<svg
  xmlns="http://www.w3.org/2000/svg"
  viewBox="0 0 24 24"
  fill="currentColor"
  class="w-6 h-6"
>
  <path
    fill-rule="evenodd"
    d="M3.75 2.25A.75.75 0 013 3v3.75a.75.75 0 01-.75.75 1.5 1.5 0 000 3A.75.75 0 013 12v3.75a.75.75 0 01-.75.75 1.5 1.5 0 000 3A.75.75 0 013 21v.75a.75.75 0 01-.75.75h-.75a.75.75 0 01-.75-.75V3a.75.75 0 01.75-.75h.75a.75.75 0 01.75.75V3zm16.5 0a.75.75 0 01.75.75v18a.75.75 0 01-.75.75h-.75a.75.75 0 01-.75-.75V21a.75.75 0 01-.75-.75 1.5 1.5 0 000-3A.75.75 0 0121 15.75V12a.75.75 0 01.75-.75 1.5 1.5 0 000-3A.75.75 0 0121 6.75V3a.75.75 0 01.75-.75h.75a.75.75 0 01.75.75v.75a.75.75 0 01-.75.75h-.75a.75.75 0 01-.75-.75V3z"
    clip-rule="evenodd"
  />
</svg>
